PathFileType	4	(X/Y/Z)	D:\telocate\uwb01-Unnamed.trc
DataRate	CameraRate	NumFrames	NumMarkers	Units	OrigDataRate	OrigDataStartFrame	OrigNumFrames
100.00	100.00	      130	0	mm	100.00	942	      7534
Frame#	Time	
		

942	9.410	3354.34985	-1838.01428	1190.95959	
943	9.420	3355.36694	-1835.45801	1190.48633	
944	9.430	3356.84106	-1833.98840	1190.84167	
945	9.440	3357.97974	-1832.56494	1190.55664	
946	9.450	3362.84253	-1829.47327	1191.41455	
947	9.460	3364.36670	-1827.63232	1191.33423	
948	9.470	3365.51758	-1826.47388	1191.51453	
949	9.480	3367.43506	-1824.62817	1191.32507	
950	9.490	3367.30908	-1822.96375	1191.29089	
951	9.500	3369.90552	-1820.97534	1190.93225	
952	9.510	3371.86450	-1818.67029	1190.99805	
953	9.520	3373.96240	-1817.05493	1190.70496	
954	9.530	3376.04468	-1815.54968	1191.08167	
955	9.540	3377.42432	-1813.75073	1190.76074	
956	9.550	3379.45557	-1811.60449	1190.28381	
957	9.560	3382.43311	-1809.42712	1190.51318	
958	9.570	3387.62720	-1806.11096	1191.10669	
959	9.580	3388.92798	-1804.02002	1190.51990	
960	9.590	3391.06616	-1801.91907	1190.81421	
961	9.600	3392.73633	-1799.90454	1190.39954	
962	9.610	3394.36914	-1798.14563	1190.37488	
963	9.620	3396.74780	-1795.63867	1190.10754	
964	9.630	3398.55566	-1793.82178	1189.70850	
965	9.640	3400.00391	-1791.54822	1189.13391	
966	9.650	3403.82935	-1788.83569	1189.87695	
967	9.660	3405.91675	-1785.99536	1189.40173	
968	9.670	3411.04468	-1782.60034	1189.76672	
969	9.680	3413.73901	-1779.84802	1189.06775	
970	9.690	3416.60986	-1777.27576	1189.34998	
971	9.700	3417.02832	-1774.28528	1188.77808	
972	9.710	3420.58521	-1771.80042	1188.67249	
973	9.720	3423.59204	-1768.24487	1188.73071	
974	9.730	3425.40527	-1765.19019	1188.33313	
975	9.740	3428.49194	-1762.08582	1187.97888	
976	9.750	3431.43066	-1759.48328	1187.87439	
977	9.760	3437.33276	-1755.30273	1187.47766	
978	9.770	3439.68237	-1752.01001	1187.31079	
979	9.780	3441.56982	-1749.12817	1186.53821	
980	9.790	3443.87549	-1745.94531	1186.36182	
981	9.800	3445.71851	-1742.99927	1185.58179	
982	9.810	3448.22266	-1739.80811	1185.86853	
983	9.820	3450.46948	-1736.55457	1185.58252	
984	9.830	3453.08862	-1733.00012	1184.72925	
985	9.840	3454.23486	-1730.35095	1184.64624	
986	9.850	3459.65527	-1726.99780	1184.54492	
987	9.860	3461.88257	-1723.72534	1184.29370	
988	9.870	3460.53979	-1720.68103	1184.26514	
989	9.880	3462.07861	-1717.91345	1184.42603	
990	9.890	3465.85791	-1714.90881	1184.58105	
991	9.900	3467.68970	-1712.04724	1184.68726	
992	9.910	3470.50586	-1709.23315	1184.33826	
993	9.920	3471.13037	-1706.32983	1183.75610	
994	9.930	3472.73486	-1703.56787	1183.83362	
995	9.940	3472.84644	-1700.65796	1183.35852	
996	9.950	3479.94507	-1696.54529	1183.34644	
997	9.960	3484.20483	-1694.42493	1182.61841	
998	9.970	3486.04248	-1690.80457	1182.57507	
999	9.980	3487.60864	-1687.47754	1182.80920	
1000	9.990	3486.51318	-1683.36096	1183.61475	
1001	10.000	3487.43726	-1681.16431	1184.04553	
1002	10.010	3488.60400	-1678.31372	1184.02649	
1003	10.020	3488.92017	-1675.94360	1182.91907	
1004	10.030	3491.06079	-1672.91418	1184.35144	
1005	10.040	3493.16431	-1670.25012	1184.70581	
1006	10.050	3494.12817	-1667.39697	1184.37610	
1007	10.060	3495.03271	-1665.24988	1184.30530	
1008	10.070	3502.05493	-1661.43835	1184.42139	
1009	10.080	3504.06201	-1659.43115	1184.55286	
1010	10.090	3506.48926	-1655.99072	1183.51306	
1011	10.100	3506.22192	-1653.80530	1183.77625	
1012	10.110	3510.29126	-1651.05676	1183.48828	
1013	10.120	3514.32153	-1648.15454	1183.34253	
1014	10.130	3515.69751	-1644.71716	1183.15503	
1015	10.140	3518.17700	-1642.10010	1183.48621	
1016	10.150	3528.43604	-1639.69751	1181.64270	
1017	10.160	3530.62573	-1637.32507	1181.73572	
1018	10.170	3532.35083	-1633.92639	1181.31433	
1019	10.180	3532.37427	-1630.73938	1182.13477	
1020	10.190	3533.51758	-1627.42505	1182.29602	
1021	10.200	3534.90063	-1625.20715	1182.49048	
1022	10.210	3536.01514	-1621.97583	1181.26355	
1023	10.220	3540.63770	-1619.03308	1181.99951	
1024	10.230	3541.00977	-1616.69141	1180.78809	
1025	10.240	3543.50024	-1613.77075	1181.02344	
1026	10.250	3546.05493	-1610.76672	1180.99927	
1027	10.260	3549.23096	-1607.48230	1180.14636	
1028	10.270	3555.34106	-1603.36475	1180.35095	
1029	10.280	3559.49780	-1600.22449	1180.05200	
1030	10.290	3561.73926	-1598.00012	1180.22461	
1031	10.300	3563.55103	-1594.30225	1179.96802	
1032	10.310	3565.59961	-1591.78394	1179.72925	
1033	10.320	3575.59473	-1589.07666	1178.43848	
1034	10.330	3577.08032	-1586.56824	1177.66016	
1035	10.340	3579.27002	-1583.54932	1177.63635	
1036	10.350	3578.86084	-1580.25659	1178.78943	
1037	10.360	3579.93408	-1576.65125	1178.09644	
1038	10.370	3581.57080	-1574.41174	1178.15552	
1039	10.380	3582.71631	-1571.91101	1178.05115	
1040	10.390	3586.25342	-1568.74268	1177.82275	
1041	10.400	3587.73193	-1565.74255	1177.69714	
1042	10.410	3589.60229	-1563.77332	1177.42896	
1043	10.420	3595.02002	-1559.97327	1177.17078	
1044	10.430	3597.44629	-1557.71252	1177.38330	
1045	10.440	3599.68262	-1554.40613	1177.53113	
1046	10.450	3599.78564	-1552.06580	1176.79907	
1047	10.460	3602.80908	-1548.52771	1176.48938	
1048	10.470	3606.39648	-1545.89233	1176.70874	
1049	10.480	3607.72705	-1543.53479	1176.25891	
1050	10.490	3609.88647	-1540.78174	1176.47241	
1051	10.500	3613.95020	-1538.06763	1176.29175	
1052	10.510	3621.46313	-1535.58740	1175.08179	
1053	10.520	3623.29346	-1532.35376	1175.12476	
1054	10.530	3625.36279	-1529.90369	1174.86304	
1055	10.540	3624.75024	-1526.49915	1176.36475	
1056	10.550	3626.26001	-1523.61890	1175.69299	
1057	10.560	3628.24707	-1520.52844	1174.86536	
1058	10.570	3629.97314	-1518.02539	1175.86682	
1059	10.580	3633.11938	-1515.00806	1175.14197	
1060	10.590	3634.60815	-1511.83545	1176.14368	
1061	10.600	3640.92456	-1508.30164	1175.84961	
1062	10.610	3643.51147	-1505.86865	1176.19580	
1063	10.620	3646.17578	-1502.40857	1175.79651	
1064	10.630	3647.18896	-1499.03601	1175.38354	
1065	10.640	3649.85449	-1495.58350	1175.61584	
1066	10.650	3652.38281	-1492.73633	1175.00696	
1067	10.660	3654.81250	-1489.58044	1175.02405	
1068	10.670	3659.77295	-1485.30322	1174.91602	
1069	10.680	3665.90405	-1482.47400	1174.08740	
1070	10.690	3668.36548	-1478.35071	1173.67883	
1071	10.700	3668.33667	-1474.34399	1173.71753	
